# xmcd
#
# Track frame offsets: 
#        150
#        14775
#        26400
#        38100
#        56400
#        68025
#        85950
#        105975
#        129750
#        150525
#        169575
#        188325
#        203025
#        218325
#        232425
#        247725
#
# Disc length: 3484 seconds
#
# Revision: 2
# Processed by: cddbd v1.5.2PL0 Copyright (c) Steve Scherf et al.
# Submitted via: ExactAudioCopy v1.3
#
DISCID=c00d9a10
DTITLE=Collection - 16 Original World Hits Of The 70's
DYEAR=1989
DGENRE=Country
TTITLE0=Tony Christie - Amarillo
TTITLE1=Sonny and Cher - All I Ever Need
TTITLE2=Brian Hyland - Gypsy Woman
TTITLE3=Tanya Tucker - Not Fade Away
TTITLE4=Billy " Crash" Craddock - Rub It In
TTITLE5=Kenny Rodgers - Something's Burning
TTITLE6=Mathews' Southern Comfort - Woodstock
TTITLE7=Joe Walsh - Rocky Mountain Way
TTITLE8=Rupert Holmes - Escape (The Pina Colada Song)
TTITLE9=The Pointer Sisters - Yes We Can
TTITLE10=Jimmy Buffett - Margarittaville
TTITLE11=Sonny and Cher - A Cowboy's Work Is Never Done
TTITLE12=Bo Donaldson and The Heywoods - Billy Don't Be A Hero
TTITLE13=Telly Savalas - If
TTITLE14=Garry Moore - Parisienne Walkways
TTITLE15=Steohen Bishop - On And On
EXTD=
EXTT0=
EXTT1=
EXTT2=
EXTT3=
EXTT4=
EXTT5=
EXTT6=
EXTT7=
EXTT8=
EXTT9=
EXTT10=
EXTT11=
EXTT12=
EXTT13=
EXTT14=
EXTT15=
PLAYORDER=
